<?xml version="1.0" standalone="no"?><!DOCTYPE svg PUBLIC "-//W3C//DTD SVG 1.1//EN" "http://www.w3.org/Graphics/SVG/1.1/DTD/svg11.dtd"><svg t="1622474077403" class="icon" viewBox="0 0 1024 1024" version="1.1" xmlns="http://www.w3.org/2000/svg" p-id="2772" width="48" height="48" xmlns:xlink="http://www.w3.org/1999/xlink"><defs><style type="text/css"></style></defs><path d="M813.26 484.16c-0.12-0.1-0.26-0.18-0.4-0.26-11.16-7.08-23.34-7.1-25.26-7.06h-29.74c-19.38-30.1-50.96-50.28-86.02-55.52 0.02-0.18 0.06-0.36 0.08-0.54 0.2-2.9-0.86-5.74-2.9-7.8l-47.36-47.36a9.94 9.94 0 0 0-7.06-2.92c-2.66 0-5.2 1.04-7.08 2.92l-27.24 27.24-3.7-27.36c39.22-22.46 65.72-64.68 65.78-113 0-0.06 0.02-0.12 0.02-0.18V154.5c8.02-6.38 15.52-14.64 20.88-25.36 14.2-28.3 9.46-64.96-14.06-108.96a9.974 9.974 0 0 0-15.06-3.08c-0.58 0.46-60 47.08-154.04 47.1-18.02 0-36.42-1.72-54.68-5.1-2.66-0.5-5.36-0.76-8.04-0.76-27.58 0-51.76 27.36-51.76 58.56 0 15.46 6.1 29.52 16 39.94v95.48c0 0.02 0.02 0.06 0.02 0.08 0.02 48.36 26.54 90.62 65.78 113.1l-3.7 27.36-27.24-27.24a9.976 9.976 0 0 0-7.06-2.92c-2.66 0-5.2 1.04-7.08 2.92l-47.34 47.36a9.956 9.956 0 0 0-2.9 7.8c0 0.18 0.04 0.36 0.06 0.54-35.04 5.24-66.62 25.42-86 55.52h-32.3c-22.28 0-40.42 18.14-40.42 40.42v359.06c0 22.28 18.14 40.42 40.42 40.42H444.8l-14.92 72.36h-54.94c-5.52 0-10 4.48-10 10s4.48 10 10 10h274.12c5.52 0 10-4.48 10-10s-4.48-10-10-10h-54.92l-14.92-72.36h210.88c22.32 0 40.46-18.14 40.46-40.42V517.28c0-13.16-6.46-25.54-17.3-33.12z m-159.58-44.22c30.78 0 59.8 13.8 79.36 36.9h-130.82l49.7-36.9h1.76z m-39.08-53.1l32.08 32.08-78 57.92h-40.98l-1.56-1.56 88.46-88.44zM512 461.14l-50.5-50.5 4.9-36.2c14.2 5.32 29.56 8.24 45.6 8.24s31.4-2.92 45.6-8.24l4.88 36.22L512 461.14zM385.62 116.9c0-20.18 15.14-38.56 31.76-38.56 1.46 0 2.94 0.14 4.4 0.42 19.46 3.6 39.08 5.44 58.32 5.44 79.14-0.02 134.92-30.34 156.6-44.46 15.82 33.2 18.78 60.18 8.74 80.32-13.26 26.64-46.2 33.86-51.24 34.82h-170.6c-20.94 0-37.98-17.04-37.98-37.98z m16.02 135.42c0-0.02-0.02-0.04-0.02-0.06V170.54c6.78 2.78 14.2 4.34 21.98 4.34h171.48c0.5 0 1-0.04 1.48-0.12 0.94-0.14 12.26-1.96 25.82-8.16v85.58c0 0.04-0.02 0.1-0.02 0.14 0 60.86-49.5 110.36-110.36 110.36s-110.36-49.5-110.36-110.36z m7.78 134.52l90 90h-44.08l-78-57.92 32.08-32.08z m-39.1 53.1h1.78l49.68 36.9h-130.8c19.56-23.1 48.58-36.9 79.34-36.9z m79.98 549.16l14.92-72.34h93.58l14.92 72.34h-123.42z m360.26-112.78c0 11.26-9.18 20.42-20.46 20.42H233.86c-11.26 0-20.42-9.16-20.42-20.42V517.26c0-11.26 9.16-20.42 20.42-20.42h37.6c0.08 0 0.18 0.02 0.26 0.02 0.08 0 0.18-0.02 0.26-0.02h179.86c0.06 0 0.14 0.02 0.2 0.02 0.08 0 0.18-0.02 0.28-0.02h119.38c0.08 0 0.18 0.02 0.26 0.02 0.08 0 0.14-0.02 0.2-0.02h179.86c0.1 0 0.18 0.02 0.26 0.02 0.1 0 0.18-0.02 0.26-0.02h35.66c0.78 0 7.74 0.1 13.78 3.84 5.38 3.86 8.58 10.04 8.58 16.6v359.04z" fill="#23130D" p-id="2773"></path><path d="M421.78 476.84h-130.8c19.56-23.1 48.58-36.9 79.34-36.9h1.78l49.68 36.9z" fill="#EC7063" p-id="2774"></path><path d="M645.44 120.06c-13.26 26.64-46.2 33.86-51.24 34.82h-170.6c-20.94 0-37.98-17.04-37.98-37.98 0-20.18 15.14-38.56 31.76-38.56 1.46 0 2.94 0.14 4.4 0.42 19.46 3.6 39.08 5.44 58.32 5.44 79.14-0.02 134.92-30.34 156.6-44.46 15.82 33.2 18.78 60.18 8.74 80.32z" fill="#F9C139" p-id="2775"></path><path d="M650.28 105.14c-1.84-12.46-6.38-26.28-13.58-41.4-21.68 14.12-77.46 44.44-156.6 44.46-19.24 0-38.86-1.84-58.32-5.44-1.46-0.28-2.94-0.42-4.4-0.42-13.14 0-25.36 11.5-29.9 26.28-1.2-3.7-1.86-7.64-1.86-11.72 0-20.18 15.14-38.56 31.76-38.56 1.46 0 2.94 0.14 4.4 0.42 19.46 3.6 39.08 5.44 58.32 5.44 79.14-0.02 134.92-30.34 156.6-44.46 12.2 25.6 16.74 47.5 13.58 65.4z" opacity=".2" p-id="2776"></path><path d="M622.38 166.6v85.58c0 0.04-0.02 0.1-0.02 0.14 0 60.86-49.5 110.36-110.36 110.36s-110.36-49.5-110.36-110.36c0-0.02-0.02-0.04-0.02-0.06V170.54c6.78 2.78 14.2 4.34 21.98 4.34h171.48c0.5 0 1-0.04 1.48-0.12 0.94-0.14 12.26-1.96 25.82-8.16z" fill="#F8D3C9" p-id="2777"></path><path d="M529.26 361.32c-5.62 0.9-11.38 1.36-17.26 1.36-60.86 0-110.36-49.5-110.36-110.36 0-0.02-0.02-0.04-0.02-0.06V170.54c6.78 2.78 14.2 4.34 21.98 4.34h12.52v77.38c0 0.02 0.02 0.04 0.02 0.06 0 55 40.42 100.72 93.12 109z" opacity=".2" p-id="2778"></path><path d="M499.42 476.84h-44.08l-78-57.92 32.08-32.08z" fill="#EC7063" p-id="2779"></path><path d="M562.48 410.66L512 461.14l-50.5-50.5 4.9-36.2c14.2 5.32 29.56 8.24 45.6 8.24s31.4-2.92 45.6-8.24l4.88 36.22z" fill="#E59D89" p-id="2780"></path><path d="M562.48 410.66l-2.62 2.62-2.26-16.7c-14.2 5.32-29.56 8.26-45.6 8.26s-31.4-2.94-45.6-8.26l-2.26 16.7-2.64-2.64 4.9-36.2c14.2 5.32 29.56 8.24 45.6 8.24s31.4-2.92 45.6-8.24l4.88 36.22z" opacity=".2" p-id="2781"></path><path d="M560.84 412.3L512 461.14l-48.86-48.86 1-7.34L512 452.8l47.86-47.86z" fill="#FFFFFF" opacity=".2" p-id="2782"></path><path d="M646.68 418.92l-78 57.92h-40.98l-1.56-1.56 88.46-88.44zM733.04 476.84h-130.82l49.7-36.9h1.76c30.78 0 59.8 13.8 79.36 36.9z" fill="#EC7063" p-id="2783"></path><path d="M421.78 476.84h-17.96l-31.72-23.56h-1.78c-24.26 0-47.46 8.6-65.76 23.56h-13.58c19.56-23.1 48.58-36.9 79.34-36.9h1.78l49.68 36.9zM499.42 476.84h-13.34l-76.66-76.66-24.42 24.42-7.66-5.68 32.08-32.08zM646.68 418.92l-7.66 5.68-24.42-24.42-76.68 76.66h-10.22l-1.56-1.56 88.46-88.44zM733.04 476.84h-13.58c-18.3-14.96-41.5-23.56-65.78-23.56h-1.76l-31.74 23.56h-17.96l49.7-36.9h1.76c30.78 0 59.8 13.8 79.36 36.9z" fill="#FFFFFF" opacity=".2" p-id="2784"></path><path d="M573.72 989.1h-123.42l14.92-72.34h93.58z" fill="#E1E1E5" p-id="2785"></path><path d="M552.282 924.76l11.62 56.34h-103.784l11.62-56.34h80.544m6.518-8h-93.58l-14.92 72.34h123.42l-14.92-72.34z" opacity=".2" p-id="2786"></path><path d="M801.98 500.68c-6.04-3.74-13-3.84-13.78-3.84h-35.66c-0.08 0-0.16 0.02-0.26 0.02-0.08 0-0.16-0.02-0.26-0.02h-179.86c-0.06 0-0.12 0.02-0.2 0.02-0.08 0-0.18-0.02-0.26-0.02h-119.38c-0.1 0-0.2 0.02-0.28 0.02-0.06 0-0.14-0.02-0.2-0.02h-179.86c-0.08 0-0.18 0.02-0.26 0.02-0.08 0-0.18-0.02-0.26-0.02h-37.6c-11.26 0-20.42 9.16-20.42 20.42v359.06c0 11.26 9.16 20.42 20.42 20.42h556.24c11.28 0 20.46-9.16 20.46-20.42V517.28c0-6.56-3.2-12.74-8.58-16.6zM523.58 769.2c-39.92 0-72.4-32.48-72.4-72.4 0-39.92 32.48-72.4 72.4-72.4 39.92 0 72.4 32.48 72.4 72.4 0 39.92-32.48 72.4-72.4 72.4z" fill="#E1E1E5" p-id="2787"></path><path d="M788.158 512.84c0.95 0.02 3.232 0.334 4.902 1.168 0.948 0.852 1.5 2.042 1.5 3.272v359.04c0 2.438-2 4.42-4.46 4.42H233.86a4.424 4.424 0 0 1-4.42-4.42V517.26c0-2.438 1.982-4.42 4.42-4.42h37.05a16.508 16.508 0 0 0 1.62 0h178.702a15.56 15.56 0 0 0 1.624 0h118.294a16.508 16.508 0 0 0 1.626 0h178.694a15.66 15.66 0 0 0 1.63 0h35.058M523.58 785.2c48.744 0 88.4-39.656 88.4-88.4 0-48.744-39.656-88.4-88.4-88.4s-88.4 39.656-88.4 88.4c0 48.744 39.656 88.4 88.4 88.4M788.2 496.84h-35.66c-0.08 0-0.16 0.02-0.26 0.02-0.08 0-0.16-0.02-0.26-0.02h-179.86c-0.06 0-0.12 0.02-0.2 0.02-0.08 0-0.18-0.02-0.26-0.02h-119.38c-0.1 0-0.2 0.02-0.28 0.02-0.06 0-0.14-0.02-0.2-0.02h-179.86c-0.08 0-0.18 0.02-0.26 0.02-0.08 0-0.18-0.02-0.26-0.02h-37.6c-11.26 0-20.42 9.16-20.42 20.42v359.06c0 11.26 9.16 20.42 20.42 20.42h556.24c11.28 0 20.46-9.16 20.46-20.42V517.28c0-6.56-3.2-12.74-8.58-16.6-6.04-3.74-13-3.84-13.78-3.84zM523.58 769.2c-39.92 0-72.4-32.48-72.4-72.4 0-39.92 32.48-72.4 72.4-72.4 39.92 0 72.4 32.48 72.4 72.4 0 39.92-32.48 72.4-72.4 72.4z" opacity=".2" p-id="2788"></path><path d="M523.58 624.4c-39.92 0-72.4 32.48-72.4 72.4 0 39.92 32.48 72.4 72.4 72.4 39.92 0 72.4-32.48 72.4-72.4 0-39.92-32.48-72.4-72.4-72.4z m0 124.8c-28.9 0-52.4-23.52-52.4-52.4 0-28.9 23.5-52.4 52.4-52.4s52.4 23.5 52.4 52.4c0 28.88-23.5 52.4-52.4 52.4z" fill="#23130D" p-id="2789"></path><path d="M575.98 696.8c0 28.88-23.5 52.4-52.4 52.4s-52.4-23.52-52.4-52.4c0-28.9 23.5-52.4 52.4-52.4s52.4 23.5 52.4 52.4z" fill="#F9C139" p-id="2790"></path><path d="M533.58 748.24c-3.24 0.64-6.58 0.96-10 0.96-28.9 0-52.4-23.52-52.4-52.4 0-28.9 23.5-52.4 52.4-52.4 3.42 0 6.76 0.32 10 0.96-24.12 4.68-42.4 25.96-42.4 51.44 0 25.46 18.28 46.76 42.4 51.44z" opacity=".2" p-id="2791"></path></svg>